<svg xmlns="http://www.w3.org/2000/svg" viewBox="0 0 280 280"><defs><style>.b10ed0b2-835e-49f6-a170-29a4e6d6e5f5,.f12455ea-174c-44d6-88de-764aebc4567e{fill:none;}.f12455ea-174c-44d6-88de-764aebc4567e{stroke:#f7f4f1;stroke-width:14px;}.b10ed0b2-835e-49f6-a170-29a4e6d6e5f5{stroke:#1c1c29;stroke-width:4px;}</style></defs><g id="b5d826c8-94fc-4e8f-86ad-60d737b68046" data-name="Large"><path id="bf49126f-58a6-4490-b0ab-42bc2dfdbcdf" data-name="track" class="f12455ea-174c-44d6-88de-764aebc4567e" d="M133.68,134.74c-1.14.51-2.42,3.09-3.49,3.61s-2-.14-2.93-.47a7.13,7.13,0,0,1-2.68-1.57c-.71-.74-.44-2.09-1.6-2.89s-1.57-.64-5.3-1.94-12.59-4.34-17.09-5.89-6.19-2.16-9.88-3.42-9-3.13-12.26-4.15-5-2.14-7.09-2-3.37,1.7-5.26,3-3.38,1.72-6.07,5A129.61,129.61,0,0,0,50,138.5c-2,3.66-2.16,5.17-2.07,7.52s2.5,3.64,2.57,6.55-1.33,7.69-2.12,10.93-1.86,6.09-2.62,8.54-1.17,4.37-1.88,6.12-1.11,3.27-2.43,4.35-4.16.36-5.49,2.18-1.95,6.07-2.41,8.77a34,34,0,0,0-.38,7.4,52.25,52.25,0,0,0,.82,8.69A28.68,28.68,0,0,0,36.58,217c1.25,2.47,4.2,5.42,5,7.31a3.72,3.72,0,0,1-.37,4c-.69.79-2.39.75-3.71.77a20.21,20.21,0,0,1-4.19-.68,32.17,32.17,0,0,1-5.14-1.27,13.84,13.84,0,0,1-3.43-2.23c-1-.77-2.05-1.44-2.3-2.35s.55-2,.82-3.15a13.1,13.1,0,0,0,.72-4c0-1.82-.8-4.16-1-7a74.62,74.62,0,0,1-.27-9.84c.19-3.92.81-9.27,1.42-13.63s1.32-8.37,2.22-12.56,2-8.71,3.16-12.57,2.89-8.21,3.77-10.65.94-2.58,1.56-4.07,1.34-3.09,2.15-4.88,1.36-3.32,2.69-5.81a70.52,70.52,0,0,1,5.27-9.13c2.44-3.37,6.76-8,9.36-11.12s4.39-6.33,6.22-7.55,1.27-.61,4.73.26,10.19,3.42,16,5S94.62,115,99.91,116.2s8.92,1.55,13,2.68,8.21,3.24,11.63,4.12a41.7,41.7,0,0,0,9,1.15c3.13.17,6.79-.32,9.79-.12a51.69,51.69,0,0,1,8.2,1.31c2.62.58,4.55,1.3,7.52,2.21s6.72,2.71,10.31,3.25a32.51,32.51,0,0,0,11.22,0,17.78,17.78,0,0,0,8.43-4.52c2-2.07,3-5.24,3.71-7.91a22.27,22.27,0,0,0,.38-8.06c-.31-2.53-1.69-4.8-2.25-7.07s-2.23-4.13-1.07-6.52S194,91.5,197.88,89s11.25-5.46,15.13-7.43,5.58-3,8.14-4.35,4.95-2.44,7.17-3.54,4.33-2.62,6.14-3a6.75,6.75,0,0,1,4.69.56A4.83,4.83,0,0,1,241,74.42a9.56,9.56,0,0,1-.25,4.08c-.35,1.39-1.6,2.64-1.82,4.25s.3,3.62.5,5.4.62,3.86.7,5.29-.41,2.42-.18,3.37a3.88,3.88,0,0,0,1.53,2.33,2.65,2.65,0,0,0,2.27-.23,2.46,2.46,0,0,0,1.47-1.79c.07-.84-.74-1.88-1.11-3.27s-.85-3.57-1.12-5.11a15.54,15.54,0,0,1-.45-4.14c.14-1.31.16-3,1.3-3.71s3.7-.66,5.49-.64a30.28,30.28,0,0,1,5.17.75c1.88.33,4.5.48,6.09,1.24s3.17,2.07,3.41,3.35-.71,1.77-2,4.32-4,7.91-5.68,11-2.77,5-4.14,7.33-2.76,4.55-4.16,6.51a33.38,33.38,0,0,1-4.22,5.17c-2.45,2.54-6.71,6.91-10.39,10a105.28,105.28,0,0,1-11.72,8.39,23,23,0,0,1-8.15,3.48c-3.42.77-6.9.85-12.39,1.13s-15,.57-20.54.54a114.15,114.15,0,0,1-12.66-.74A98.08,98.08,0,0,1,157.23,141c-3.57-.73-7.31-1.82-10.67-2.76s-7.4-2.33-9.55-2.91-2.19-1.09-3.33-.59"/><path id="eb702ca4-29ee-42f0-b333-01b4cfaed0d5" data-name="track" class="b10ed0b2-835e-49f6-a170-29a4e6d6e5f5" d="M133.68,134.74c-1.14.51-2.42,3.09-3.49,3.61s-2-.14-2.93-.47a7.13,7.13,0,0,1-2.68-1.57c-.71-.74-.44-2.09-1.6-2.89s-1.57-.64-5.3-1.94-12.59-4.34-17.09-5.89-6.19-2.16-9.88-3.42-9-3.13-12.26-4.15-5-2.14-7.09-2-3.37,1.7-5.26,3-3.38,1.72-6.07,5A129.61,129.61,0,0,0,50,138.5c-2,3.66-2.16,5.17-2.07,7.52s2.5,3.64,2.57,6.55-1.33,7.69-2.12,10.93-1.86,6.09-2.62,8.54-1.17,4.37-1.88,6.12-1.11,3.27-2.43,4.35-4.16.36-5.49,2.18-1.95,6.07-2.41,8.77a34,34,0,0,0-.38,7.4,52.25,52.25,0,0,0,.82,8.69A28.68,28.68,0,0,0,36.58,217c1.25,2.47,4.2,5.42,5,7.31a3.72,3.72,0,0,1-.37,4c-.69.79-2.39.75-3.71.77a20.21,20.21,0,0,1-4.19-.68,32.17,32.17,0,0,1-5.14-1.27,13.84,13.84,0,0,1-3.43-2.23c-1-.77-2.05-1.44-2.3-2.35s.55-2,.82-3.15a13.1,13.1,0,0,0,.72-4c0-1.82-.8-4.16-1-7a74.62,74.62,0,0,1-.27-9.84c.19-3.92.81-9.27,1.42-13.63s1.32-8.37,2.22-12.56,2-8.71,3.16-12.57,2.89-8.21,3.77-10.65L40.42,133a56.37,56.37,0,0,1,4.49-7.63c2.44-3.37,6.76-8,9.36-11.12s4.39-6.33,6.22-7.55,1.27-.61,4.73.26,10.19,3.42,16,5S94.62,115,99.91,116.2s8.92,1.55,13,2.68,8.21,3.24,11.63,4.12a41.7,41.7,0,0,0,9,1.15c3.13.17,6.79-.32,9.79-.12a51.69,51.69,0,0,1,8.2,1.31c2.62.58,4.55,1.3,7.52,2.21s6.72,2.71,10.31,3.25a32.51,32.51,0,0,0,11.22,0,17.78,17.78,0,0,0,8.43-4.52c2-2.07,3-5.24,3.71-7.91a22.27,22.27,0,0,0,.38-8.06c-.31-2.53-1.69-4.8-2.25-7.07s-2.23-4.13-1.07-6.52S194,91.5,197.88,89s11.25-5.46,15.13-7.43,5.58-3,8.14-4.35,4.95-2.44,7.17-3.54,4.33-2.62,6.14-3a6.75,6.75,0,0,1,4.69.56A4.83,4.83,0,0,1,241,74.42a9.56,9.56,0,0,1-.25,4.08c-.35,1.39-1.6,2.64-1.82,4.25s.3,3.62.5,5.4.62,3.86.7,5.29-.41,2.42-.18,3.37a3.88,3.88,0,0,0,1.53,2.33,2.65,2.65,0,0,0,2.27-.23,2.46,2.46,0,0,0,1.47-1.79c.07-.84-.74-1.88-1.11-3.27s-.85-3.57-1.12-5.11a15.54,15.54,0,0,1-.45-4.14c.14-1.31.16-3,1.3-3.71s3.7-.66,5.49-.64a30.28,30.28,0,0,1,5.17.75c1.88.33,4.5.48,6.09,1.24s3.17,2.07,3.41,3.35-.71,1.77-2,4.32-4,7.91-5.68,11-2.77,5-4.14,7.33-2.76,4.55-4.16,6.51a33.38,33.38,0,0,1-4.22,5.17c-2.45,2.54-6.71,6.91-10.39,10a105.28,105.28,0,0,1-11.72,8.39,23,23,0,0,1-8.15,3.48c-3.42.77-6.9.85-12.39,1.13s-15,.57-20.54.54a114.15,114.15,0,0,1-12.66-.74A98.08,98.08,0,0,1,157.23,141c-3.57-.73-7.31-1.82-10.67-2.76s-7.4-2.33-9.55-2.91-2.19-1.09-3.33-.59"/></g></svg>